<?xml version="1.0" encoding="utf-8"?>
<!-- Generator: Adobe Illustrator 28.2.0, SVG Export Plug-In . SVG Version: 6.00 Build 0)  -->
<svg version="1.1" id="Layer_1" xmlns="http://www.w3.org/2000/svg" xmlns:xlink="http://www.w3.org/1999/xlink" x="0px" y="0px"
	 viewBox="0 0 1200 900" style="enable-background:new 0 0 1200 900;" xml:space="preserve">
<style type="text/css">
	.st0{fill:#FFFFFF;}
</style>
<path class="st0" d="M0,0v900h1200V0H0z M410.1,556.1c-12.1,0-22.7-6.8-27.7-17.8c-5-11-3.3-23.5,4.6-32.6l129.8-151.2
	c5.8-6.8,14.2-10.6,23.1-10.6c0,0,0,0,0,0c8.9,0,17.3,3.9,23.1,10.6l0.8,1c9.8,11.4,9.7,28.5-0.1,39.9L433.1,545.6
	C427.3,552.3,418.9,556.1,410.1,556.1z M820.1,529.1c-2.5,15.6-18.1,26.1-31.1,26.9c-1.1,0.1-2.3,0.1-3.4,0.1
	c-5.9,0-11.5-1-16.7-2.9c-15.2-5.7-21.7-17.3-30.8-33.4c-4.7-8.3-10-17.8-17.6-28.4c-12.4-17.5-25.3-35.5-45.7-41
	c-16.1-4.4-32.1,0.3-44.5,6.5c11.4-0.6,30.7,1.1,46.4,15.6c5,4.6,21.3,21.7,19,45.7c-0.7,7.2-2.9,14.2-6.7,20.7
	c-2.8,4.2-7.8,9.9-15.7,13.7c-4.3,2.1-8.9,3.3-13.7,3.7c0,0,0,0,0,0c-9.3,0-18-4-24-11l-17.8-20.7c-4.5-5.2-11-8.2-17.9-8.2
	c-6.9,0-13.4,3-17.9,8.2L564.3,545c-6,7-14.7,11-23.9,11h-6.9c-12.4,0-23.4-7-28.6-18.3c-5.2-11.3-3.4-24.2,4.7-33.6l122.9-143.2
	c7.2-8.4,17.6-13.2,28.7-13.2s21.5,4.8,28.7,13.2l123,143.2C815.7,507.7,822,517.3,820.1,529.1z"/>
</svg>
